C:\Users\u0150099\Documents\master_thesis\3dpredictsim\Polynomials\CP3_T0_scaled_sf_v2_right\dummy_motion.mot
nRows=8
nColumns=32

name C:\Users\u0150099\Documents\master_thesis\3dpredictsim\Polynomials\CP3_T0_scaled_sf_v2_right\dummy_motion.mot
datacolumns 32
datarows 8
range 12.5100000000 12.5800000000
endheader
time	pelvis_tilt	pelvis_list	pelvis_rotation	pelvis_tx	pelvis_ty	pelvis_tz	hip_flexion_r	hip_adduction_r	hip_rotation_r	knee_angle_r	ankle_angle_r	subtalar_angle_r	mtp_angle_r	hip_flexion_l	hip_adduction_l	hip_rotation_l	knee_angle_l	ankle_angle_l	subtalar_angle_l	mtp_angle_l	lumbar_extension	lumbar_bending	lumbar_rotation	arm_flex_r	arm_add_r	arm_rot_r	elbow_flex_r	arm_flex_l	arm_add_l	arm_rot_l	elbow_flex_l
       12.5100000000	        0.0000000000	        0.0000000000	        0.0000000000	        0.0000000000	        0.0000000000	        0.0000000000	        8.2949797028	      -25.4966146856	      -10.1684377258	      -81.6234893860	       19.6351468115	       -8.8544596597	      -26.0393155012	        0.0000000000	        0.0000000000	        0.0000000000	        0.0000000000	        0.0000000000	        0.0000000000	        0.0000000000	      -16.8930389808	      -26.9901803352	      -14.2453710477	        0.0000000000	        0.0000000000	        0.0000000000	        0.0000000000	        0.0000000000	        0.0000000000	        0.0000000000	        0.0000000000	
       12.5200000000	        0.0000000000	        0.0000000000	        0.0000000000	        0.0000000000	        0.0000000000	        0.0000000000	      -30.6344085175	      -26.0433204243	        4.7836424685	      -31.0655202000	        3.9250951050	       20.7959157565	      -20.9793809589	        0.0000000000	        0.0000000000	        0.0000000000	        0.0000000000	        0.0000000000	        0.0000000000	        0.0000000000	      -27.4623556200	       -0.6299823852	        7.8628025988	        0.0000000000	        0.0000000000	        0.0000000000	        0.0000000000	        0.0000000000	        0.0000000000	        0.0000000000	        0.0000000000	
       12.5300000000	        0.0000000000	        0.0000000000	        0.0000000000	        0.0000000000	        0.0000000000	        0.0000000000	      -47.5309038127	      -16.4014913485	       25.2163063354	      -53.7064894444	       -5.3794267806	        1.1717518765	       12.5194880374	        0.0000000000	        0.0000000000	        0.0000000000	        0.0000000000	        0.0000000000	        0.0000000000	        0.0000000000	       -2.5045180031	       -8.4779702271	      -19.6121198167	        0.0000000000	        0.0000000000	        0.0000000000	        0.0000000000	        0.0000000000	        0.0000000000	        0.0000000000	        0.0000000000	
       12.5400000000	        0.0000000000	        0.0000000000	        0.0000000000	        0.0000000000	        0.0000000000	        0.0000000000	       -9.3408257933	      -19.5657847619	       16.6025157590	       -5.7028413807	       20.4948356188	        3.2352825165	      -27.0655777414	        0.0000000000	        0.0000000000	        0.0000000000	        0.0000000000	        0.0000000000	        0.0000000000	        0.0000000000	      -10.8737783037	      -12.2440567468	       25.9824712625	        0.0000000000	        0.0000000000	        0.0000000000	        0.0000000000	        0.0000000000	        0.0000000000	        0.0000000000	        0.0000000000	
       12.5500000000	        0.0000000000	        0.0000000000	        0.0000000000	        0.0000000000	        0.0000000000	        0.0000000000	       40.6068382821	        5.4691542429	        9.3470453164	      -12.7585153881	      -10.6246804706	      -28.6738405056	       41.3172714789	        0.0000000000	        0.0000000000	        0.0000000000	        0.0000000000	        0.0000000000	        0.0000000000	        0.0000000000	       -0.8689062082	       -9.3981236287	       14.5708025183	        0.0000000000	        0.0000000000	        0.0000000000	        0.0000000000	        0.0000000000	        0.0000000000	        0.0000000000	        0.0000000000	
       12.5600000000	        0.0000000000	        0.0000000000	        0.0000000000	        0.0000000000	        0.0000000000	        0.0000000000	       48.1767118621	        5.6286491263	      -18.4216845463	      -48.0918996988	        3.1830021929	       29.9012329686	       13.5954299930	        0.0000000000	        0.0000000000	        0.0000000000	        0.0000000000	        0.0000000000	        0.0000000000	        0.0000000000	      -26.0179791968	       18.1747655947	      -29.3932676834	        0.0000000000	        0.0000000000	        0.0000000000	        0.0000000000	        0.0000000000	        0.0000000000	        0.0000000000	        0.0000000000	
       12.5700000000	        0.0000000000	        0.0000000000	        0.0000000000	        0.0000000000	        0.0000000000	        0.0000000000	      -40.7074942368	      -14.0559959314	        2.8343053037	      -48.5543759799	       24.8873805137	       15.7550794371	      -15.0899906176	        0.0000000000	        0.0000000000	        0.0000000000	        0.0000000000	        0.0000000000	        0.0000000000	        0.0000000000	       -1.7994955258	       13.8744432384	      -17.4884602710	        0.0000000000	        0.0000000000	        0.0000000000	        0.0000000000	        0.0000000000	        0.0000000000	        0.0000000000	        0.0000000000	
       12.5800000000	        0.0000000000	        0.0000000000	        0.0000000000	        0.0000000000	        0.0000000000	        0.0000000000	      -44.5130676211	       28.8934491898	       12.1066410453	      -57.7396733765	      -23.0646589267	       24.2527345348	       20.4804467388	        0.0000000000	        0.0000000000	        0.0000000000	        0.0000000000	        0.0000000000	        0.0000000000	        0.0000000000	       26.1279392138	      -14.4514308637	       20.0320579224	        0.0000000000	        0.0000000000	        0.0000000000	        0.0000000000	        0.0000000000	        0.0000000000	        0.0000000000	        0.0000000000	
